<mxfile host="app.diagrams.net" modified="2021-09-10T02:11:32.021Z" agent="5.0 (Windows NT 10.0; Win64; x64) AppleWebKit/537.36 (KHTML, like Gecko) Chrome/93.0.4577.63 Safari/537.36" etag="PqUR-ESzuuJfhhilVm46" version="15.1.2" type="github">
  <diagram id="i3HZwPnbWrurA4cPs5vd" name="第 1 页">
    <mxGraphModel dx="1422" dy="706" grid="1" gridSize="10" guides="1" tooltips="1" connect="1" arrows="1" fold="1" page="1" pageScale="1" pageWidth="827" pageHeight="1169" math="0" shadow="0">
      <root>
        <mxCell id="0" />
        <mxCell id="1" parent="0" />
        <mxCell id="CojCU6coKQFjuNrOtuq6-30" value="" style="rounded=1;whiteSpace=wrap;html=1;sketch=1;dashed=1;" vertex="1" parent="1">
          <mxGeometry x="60" y="10" width="1060" height="490" as="geometry" />
        </mxCell>
        <mxCell id="CojCU6coKQFjuNrOtuq6-1" value="WEB" style="whiteSpace=wrap;html=1;sketch=1;rounded=1;" vertex="1" parent="1">
          <mxGeometry x="270" y="50" width="120" height="40" as="geometry" />
        </mxCell>
        <mxCell id="CojCU6coKQFjuNrOtuq6-3" style="edgeStyle=orthogonalEdgeStyle;orthogonalLoop=1;jettySize=auto;html=1;sketch=1;curved=1;" edge="1" parent="1" source="CojCU6coKQFjuNrOtuq6-2">
          <mxGeometry relative="1" as="geometry">
            <mxPoint x="280" y="140" as="targetPoint" />
          </mxGeometry>
        </mxCell>
        <mxCell id="CojCU6coKQFjuNrOtuq6-2" value="User" style="outlineConnect=0;fontColor=#232F3E;gradientColor=none;strokeColor=#232F3E;fillColor=#ffffff;dashed=0;verticalLabelPosition=bottom;verticalAlign=top;align=center;html=1;fontSize=12;fontStyle=0;aspect=fixed;shape=mxgraph.aws4.resourceIcon;resIcon=mxgraph.aws4.user;sketch=1;rounded=1;" vertex="1" parent="1">
          <mxGeometry x="90" y="110" width="60" height="60" as="geometry" />
        </mxCell>
        <mxCell id="CojCU6coKQFjuNrOtuq6-4" value="查询告警" style="text;html=1;strokeColor=none;fillColor=none;align=center;verticalAlign=middle;whiteSpace=wrap;sketch=1;rounded=1;" vertex="1" parent="1">
          <mxGeometry x="180" y="110" width="60" height="20" as="geometry" />
        </mxCell>
        <mxCell id="CojCU6coKQFjuNrOtuq6-5" value="" style="whiteSpace=wrap;html=1;sketch=1;rounded=1;" vertex="1" parent="1">
          <mxGeometry x="325" y="100" width="10" height="290" as="geometry" />
        </mxCell>
        <mxCell id="CojCU6coKQFjuNrOtuq6-25" style="edgeStyle=orthogonalEdgeStyle;orthogonalLoop=1;jettySize=auto;html=1;dashed=1;shape=link;sketch=1;curved=1;" edge="1" parent="1" source="CojCU6coKQFjuNrOtuq6-6" target="CojCU6coKQFjuNrOtuq6-8">
          <mxGeometry relative="1" as="geometry" />
        </mxCell>
        <mxCell id="CojCU6coKQFjuNrOtuq6-6" value="统一监控后端" style="whiteSpace=wrap;html=1;sketch=1;rounded=1;" vertex="1" parent="1">
          <mxGeometry x="480" y="50" width="120" height="40" as="geometry" />
        </mxCell>
        <mxCell id="CojCU6coKQFjuNrOtuq6-7" style="edgeStyle=orthogonalEdgeStyle;orthogonalLoop=1;jettySize=auto;html=1;sketch=1;curved=1;" edge="1" parent="1">
          <mxGeometry relative="1" as="geometry">
            <mxPoint x="530" y="170" as="targetPoint" />
            <mxPoint x="360" y="170" as="sourcePoint" />
          </mxGeometry>
        </mxCell>
        <mxCell id="CojCU6coKQFjuNrOtuq6-8" value="" style="whiteSpace=wrap;html=1;sketch=1;rounded=1;" vertex="1" parent="1">
          <mxGeometry x="535" y="130" width="10" height="300" as="geometry" />
        </mxCell>
        <mxCell id="CojCU6coKQFjuNrOtuq6-9" value="查询告警列表" style="text;html=1;strokeColor=none;fillColor=none;align=center;verticalAlign=middle;whiteSpace=wrap;sketch=1;rounded=1;" vertex="1" parent="1">
          <mxGeometry x="390" y="140" width="80" height="20" as="geometry" />
        </mxCell>
        <mxCell id="CojCU6coKQFjuNrOtuq6-26" style="edgeStyle=orthogonalEdgeStyle;orthogonalLoop=1;jettySize=auto;html=1;dashed=1;shape=link;sketch=1;curved=1;" edge="1" parent="1" source="CojCU6coKQFjuNrOtuq6-10" target="CojCU6coKQFjuNrOtuq6-11">
          <mxGeometry relative="1" as="geometry" />
        </mxCell>
        <mxCell id="CojCU6coKQFjuNrOtuq6-10" value="告警源" style="whiteSpace=wrap;html=1;sketch=1;rounded=1;" vertex="1" parent="1">
          <mxGeometry x="690" y="50" width="120" height="40" as="geometry" />
        </mxCell>
        <mxCell id="CojCU6coKQFjuNrOtuq6-11" value="" style="whiteSpace=wrap;html=1;sketch=1;rounded=1;" vertex="1" parent="1">
          <mxGeometry x="745" y="160" width="10" height="140" as="geometry" />
        </mxCell>
        <mxCell id="CojCU6coKQFjuNrOtuq6-14" style="edgeStyle=orthogonalEdgeStyle;orthogonalLoop=1;jettySize=auto;html=1;sketch=1;curved=1;" edge="1" parent="1">
          <mxGeometry relative="1" as="geometry">
            <mxPoint x="550" y="245" as="targetPoint" />
            <mxPoint x="745" y="245" as="sourcePoint" />
          </mxGeometry>
        </mxCell>
        <mxCell id="CojCU6coKQFjuNrOtuq6-16" style="edgeStyle=orthogonalEdgeStyle;orthogonalLoop=1;jettySize=auto;html=1;dashed=1;sketch=1;curved=1;" edge="1" parent="1">
          <mxGeometry relative="1" as="geometry">
            <mxPoint x="370" y="244.5" as="targetPoint" />
            <mxPoint x="535" y="244.5" as="sourcePoint" />
          </mxGeometry>
        </mxCell>
        <mxCell id="CojCU6coKQFjuNrOtuq6-17" value="return" style="text;html=1;strokeColor=none;fillColor=none;align=center;verticalAlign=middle;whiteSpace=wrap;sketch=1;rounded=1;" vertex="1" parent="1">
          <mxGeometry x="410" y="210" width="100" height="20" as="geometry" />
        </mxCell>
        <mxCell id="CojCU6coKQFjuNrOtuq6-28" style="edgeStyle=orthogonalEdgeStyle;orthogonalLoop=1;jettySize=auto;html=1;dashed=1;shape=link;sketch=1;curved=1;" edge="1" parent="1" source="CojCU6coKQFjuNrOtuq6-19" target="CojCU6coKQFjuNrOtuq6-20">
          <mxGeometry relative="1" as="geometry" />
        </mxCell>
        <mxCell id="CojCU6coKQFjuNrOtuq6-19" value="推送目标（dingtalk）" style="whiteSpace=wrap;html=1;sketch=1;rounded=1;" vertex="1" parent="1">
          <mxGeometry x="900" y="50" width="120" height="40" as="geometry" />
        </mxCell>
        <mxCell id="CojCU6coKQFjuNrOtuq6-20" value="" style="whiteSpace=wrap;html=1;sketch=1;rounded=1;" vertex="1" parent="1">
          <mxGeometry x="955" y="310" width="10" height="100" as="geometry" />
        </mxCell>
        <mxCell id="CojCU6coKQFjuNrOtuq6-21" style="edgeStyle=orthogonalEdgeStyle;orthogonalLoop=1;jettySize=auto;html=1;sketch=1;curved=1;" edge="1" parent="1">
          <mxGeometry relative="1" as="geometry">
            <mxPoint x="940" y="360" as="targetPoint" />
            <mxPoint x="550" y="360" as="sourcePoint" />
          </mxGeometry>
        </mxCell>
        <mxCell id="CojCU6coKQFjuNrOtuq6-22" value="推送告警" style="text;html=1;strokeColor=none;fillColor=none;align=center;verticalAlign=middle;whiteSpace=wrap;sketch=1;rounded=1;" vertex="1" parent="1">
          <mxGeometry x="570" y="330" width="80" height="20" as="geometry" />
        </mxCell>
        <mxCell id="CojCU6coKQFjuNrOtuq6-23" value="聚合告警信息" style="text;html=1;strokeColor=none;fillColor=none;align=center;verticalAlign=middle;whiteSpace=wrap;sketch=1;rounded=1;" vertex="1" parent="1">
          <mxGeometry x="600" y="210" width="100" height="20" as="geometry" />
        </mxCell>
      </root>
    </mxGraphModel>
  </diagram>
</mxfile>
